# xmcd
#
# Track frame offsets: 
#        150
#        11067
#        22212
#        37375
#        47305
#        59287
#        72289
#        84739
#        102156
#        120139
#        135439
#        148192
#
# Disc length: 2224 seconds
#
# Revision: 0
# Processed by: cddbd v1.5.2PL0 Copyright (c) Steve Scherf et al.
# Submitted via: ExactAudioCopy v0.99pb5
#
DISCID=a408ae0c
DTITLE=Stan Kenton Tex Ritter - Stan Kenton! Tex Ritter! CAPITOL T1757
DYEAR=1900
DGENRE=Country
TTITLE0=A1- Bandit Of Brazil
TTITLE1=A2-Green Leaves Of Summer
TTITLE2=A3- Home On The Range
TTITLE3=A4-Wagon Wheels
TTITLE4=A5-Empty Saddles
TTITLE5=A6- High Noon (Do Not Forsake Me)
TTITLE6=B1-Cool Water
TTITLE7=B2- September Song
TTITLE8=B3-Red River Valley
TTITLE9=B4-Cimarron (Roll On)
TTITLE10=B5- Take Me Back To My Boots And Saddle
TTITLE11=B6-Last Round Up
EXTD=
EXTT0=
EXTT1=
EXTT2=
EXTT3=
EXTT4=
EXTT5=
EXTT6=
EXTT7=
EXTT8=
EXTT9=
EXTT10=
EXTT11=
PLAYORDER=
